<svg width="38" height="35" viewBox="0 0 38 35" fill="none" xmlns="http://www.w3.org/2000/svg">
<g clip-path="url(#clip0_112_5105)">
<rect width="38" height="35" rx="9" fill="#48AA39"/>
<g filter="url(#filter0_d_112_5105)">
<path d="M10.9896 5.01295C9.91403 4.94285 8.80871 5.15594 7.80729 5.68523C5.13681 7.09659 4.2022 10.2516 5.744 12.6961C7.2858 15.1408 10.7322 15.9964 13.4026 14.5849C16.0731 13.1736 17.0077 10.0187 15.4659 7.57402C14.5023 6.04615 12.7823 5.1298 10.9896 5.01295ZM10.9197 6.03738C12.1766 6.11793 13.3739 6.7028 14.172 7.67006L6.47839 11.7037C5.61764 9.82637 6.38835 7.62724 8.36682 6.58161C9.17184 6.15615 10.0602 5.9823 10.9197 6.03738ZM27.6008 7.79811C26.5979 7.79811 25.6019 8.12337 24.8381 8.82254L21.3061 12.0879C21.2228 12.1246 21.1507 12.1796 21.0962 12.248L17.7041 15.3533C16.1766 16.7515 16.1766 19.013 17.7041 20.4114C19.2316 21.8097 21.702 21.8097 23.2295 20.4114L26.6916 17.2741C26.7038 17.2638 26.7154 17.2532 26.7266 17.242L26.7615 17.21C26.8035 17.1725 26.8389 17.1294 26.8665 17.082L30.3635 13.9127C31.891 12.5144 31.891 10.2209 30.3635 8.82254C29.5998 8.12337 28.6037 7.79811 27.6008 7.79811ZM14.6966 8.53442C15.5856 10.42 14.835 12.6358 12.8431 13.6886C10.8523 14.7408 8.37779 14.2135 7.03792 12.5681L14.6966 8.53442ZM27.6008 8.79052C28.3143 8.79052 29.0078 9.05406 29.5592 9.55884C30.662 10.5684 30.662 12.1669 29.5592 13.1763L26.3419 16.1536L22.3902 12.5361L25.6075 9.55884C26.1589 9.05406 26.8874 8.79052 27.6008 8.79052ZM21.5858 13.2404L25.5376 16.8899L22.4601 19.7071C21.3573 20.7166 19.6112 20.7166 18.5084 19.7071C17.4056 18.6975 17.4056 17.099 18.5084 16.0896L21.5858 13.2404ZM8.92636 17.3061C7.92345 17.3061 6.9274 17.6633 6.16365 18.3625C4.63616 19.7607 4.63616 22.0544 6.16365 23.4526L9.69572 26.6539C9.7499 26.7501 9.83546 26.8284 9.94051 26.878L13.2628 29.9513C14.7902 31.3496 17.2956 31.3496 18.8231 29.9513C20.3506 28.553 20.3506 26.2916 18.8231 24.8932L15.396 21.7879C15.3616 21.7265 15.314 21.672 15.2561 21.6279L11.6891 18.3625C10.9253 17.6633 9.92926 17.3061 8.92636 17.3061ZM8.92636 18.3305C9.63978 18.3305 10.3333 18.594 10.8847 19.0988L14.137 22.076L10.1853 25.6936L6.93301 22.7163C5.83021 21.7067 5.83021 20.1083 6.93301 19.0988C7.48441 18.594 8.21293 18.3305 8.92636 18.3305ZM28.5101 19.3549C27.3592 19.3549 26.1994 19.7414 25.3277 20.5394C23.5843 22.1354 23.5843 24.7699 25.3277 26.3658C27.0711 27.9619 29.949 27.9619 31.6924 26.3658C33.4359 24.7699 33.4359 22.1354 31.6924 20.5394C30.8207 19.7414 29.661 19.3549 28.5101 19.3549ZM28.5101 20.3793C29.1817 20.3793 29.8572 20.583 30.4335 20.9556L25.7824 25.2134C24.8578 24.0152 24.9567 22.3517 26.1321 21.2757C26.7899 20.6735 27.6562 20.3793 28.5101 20.3793ZM31.2378 21.6599C32.1796 22.8597 32.0702 24.5474 30.8881 25.6295C29.7061 26.7116 27.8624 26.8118 26.5517 25.9497L31.2378 21.6599ZM14.9064 22.7803L18.0188 25.5975C19.1216 26.6071 19.1216 28.2375 18.0188 29.247C16.916 30.2565 15.1699 30.2565 14.0671 29.247L10.9547 26.3978L14.9064 22.7803Z" fill="white"/>
</g>
</g>
<defs>
<filter id="filter0_d_112_5105" x="1" y="5" width="36" height="42" filterUnits="userSpaceOnUse" color-interpolation-filters="sRGB">
<feFlood flood-opacity="0" result="BackgroundImageFix"/>
<feColorMatrix in="SourceAlpha" type="matrix" values="0 0 0 0 0 0 0 0 0 0 0 0 0 0 0 0 0 0 127 0" result="hardAlpha"/>
<feOffset dy="12"/>
<feGaussianBlur stdDeviation="2"/>
<feComposite in2="hardAlpha" operator="out"/>
<feColorMatrix type="matrix" values="0 0 0 0 0 0 0 0 0 0 0 0 0 0 0 0 0 0 0.25 0"/>
<feBlend mode="normal" in2="BackgroundImageFix" result="effect1_dropShadow_112_5105"/>
<feBlend mode="normal" in="SourceGraphic" in2="effect1_dropShadow_112_5105" result="shape"/>
</filter>
<clipPath id="clip0_112_5105">
<rect width="38" height="35" rx="9" fill="white"/>
</clipPath>
</defs>
</svg>
