<svg width="295" height="99" viewBox="0 0 295 99" fill="none" xmlns="http://www.w3.org/2000/svg">
<g clip-path="url(#clip0_111_5100)">
<path d="M137.792 38.656V23.328H131.616C131.531 25.8667 131.157 28.4907 130.496 31.2C130.133 32.672 129.707 34.0267 129.216 35.264C128.725 36.5013 128.181 37.632 127.584 38.656H137.792ZM144.448 46.08H142.048C141.237 43.2853 140.064 41.888 138.528 41.888H126.752C125.92 41.888 125.333 42.3147 124.992 43.168C124.757 43.7227 124.597 44.6933 124.512 46.08H121.792L122.048 40.832C123.2 39.5733 124.277 37.9627 125.28 36C126.197 34.208 126.88 32.4373 127.328 30.688C128.011 27.8933 128.352 24.3733 128.352 20.128H141.28V39.072C141.28 39.4347 141.504 39.744 141.952 40C142.464 40.256 143.147 40.384 144 40.384L144.448 46.08ZM160.111 33.504C160.111 32.0107 159.738 30.7307 158.991 29.664C158.181 28.512 157.125 27.936 155.823 27.936C154.501 27.936 153.445 28.512 152.655 29.664C151.909 30.7307 151.535 32.0107 151.535 33.504C151.535 35.0187 151.919 36.2987 152.687 37.344C153.477 38.496 154.522 39.072 155.823 39.072C157.103 39.072 158.149 38.496 158.959 37.344C159.727 36.2987 160.111 35.0187 160.111 33.504ZM163.279 33.536C163.279 35.8187 162.629 37.7707 161.327 39.392C159.877 41.184 158.042 42.08 155.823 42.08C153.541 42.08 151.695 41.1947 150.287 39.424C148.986 37.8027 148.335 35.84 148.335 33.536C148.335 31.2533 148.975 29.2907 150.255 27.648C151.663 25.856 153.519 24.96 155.823 24.96C158.106 24.96 159.951 25.8667 161.359 27.68C162.639 29.3227 163.279 31.2747 163.279 33.536ZM181.999 25.376L175.375 32.256L181.935 41.664H178.287L173.231 34.432L171.951 35.648V41.664H168.847V25.376H171.951V31.584L177.967 25.376H181.999ZM201.343 28.416H195.167V41.664H191.807V28.416H185.663V25.376H201.343V28.416ZM217.205 33.504C217.205 32.0107 216.832 30.7307 216.085 29.664C215.274 28.512 214.218 27.936 212.917 27.936C211.594 27.936 210.538 28.512 209.749 29.664C209.002 30.7307 208.629 32.0107 208.629 33.504C208.629 35.0187 209.013 36.2987 209.781 37.344C210.57 38.496 211.616 39.072 212.917 39.072C214.197 39.072 215.242 38.496 216.053 37.344C216.821 36.2987 217.205 35.0187 217.205 33.504ZM220.373 33.536C220.373 35.8187 219.722 37.7707 218.421 39.392C216.97 41.184 215.136 42.08 212.917 42.08C210.634 42.08 208.789 41.1947 207.381 39.424C206.08 37.8027 205.429 35.84 205.429 33.536C205.429 31.2533 206.069 29.2907 207.349 27.648C208.757 25.856 210.613 24.96 212.917 24.96C215.2 24.96 217.045 25.8667 218.453 27.68C219.733 29.3227 220.373 31.2747 220.373 33.536ZM237.333 33.728C237.333 32.1707 236.97 30.8587 236.245 29.792C235.434 28.5973 234.4 28 233.141 28C231.84 28 230.794 28.5867 230.005 29.76C229.301 30.8267 228.949 32.1493 228.949 33.728C228.949 35.264 229.312 36.5653 230.037 37.632C230.826 38.8053 231.861 39.392 233.141 39.392C234.4 39.392 235.434 38.7947 236.245 37.6C236.97 36.5333 237.333 35.2427 237.333 33.728ZM240.501 33.728C240.501 34.6667 240.341 35.68 240.021 36.768C239.701 37.984 239.274 38.944 238.741 39.648C238.442 40.0533 238.09 40.4267 237.685 40.768C237.28 41.1093 236.842 41.408 236.373 41.664C235.904 41.92 235.413 42.112 234.901 42.24C234.41 42.3893 233.92 42.464 233.429 42.464C231.722 42.464 230.282 41.8453 229.109 40.608V46.08H225.973V25.344H229.109V26.816C230.282 25.5787 231.722 24.96 233.429 24.96C234.41 24.96 235.392 25.2267 236.373 25.76C237.354 26.272 238.144 26.9333 238.741 27.744C239.274 28.448 239.701 29.408 240.021 30.624C240.341 31.712 240.501 32.7467 240.501 33.728ZM133.76 70.448L130.72 62.896L127.808 70.448H133.76ZM140.928 79.664H137.312L134.976 73.52H126.624L124.224 79.664H120.608L129.152 58.128H132.352L140.928 79.664ZM158.624 79.664H155.488V69.648L148.096 77.84V79.664H144.96V63.376H148.096V73.328L155.488 65.168V63.376H158.624V79.664ZM156.832 57.648C156.832 59.0133 156.277 60.0587 155.168 60.784C154.165 61.4667 152.938 61.808 151.488 61.808C150.058 61.808 148.853 61.4667 147.872 60.784C146.762 60.0587 146.208 59.0133 146.208 57.648H149.376C149.376 58.1813 149.589 58.6293 150.016 58.992C150.421 59.2693 150.912 59.408 151.488 59.408C152.085 59.408 152.586 59.2693 152.992 58.992C153.461 58.6507 153.696 58.2027 153.696 57.648H156.832ZM175.843 72.4C175.843 71.1627 175.481 70.1173 174.755 69.264C174.051 68.3893 173.145 67.952 172.035 67.952C170.926 67.952 169.998 68.3893 169.251 69.264C168.526 70.1173 168.163 71.1627 168.163 72.4C168.163 73.6373 168.515 74.6827 169.219 75.536C169.945 76.368 170.873 76.784 172.003 76.784C173.091 76.784 173.998 76.3573 174.723 75.504C175.47 74.6293 175.843 73.5947 175.843 72.4ZM180.355 59.056C179.353 60.4427 178.425 61.424 177.571 62C176.953 62.4267 176.121 62.8107 175.075 63.152L172.419 64.016C171.246 64.4213 170.297 65.104 169.571 66.064C170.51 65.36 171.406 65.0187 172.259 65.04C174.414 65.1467 176.121 65.936 177.379 67.408C178.553 68.7733 179.139 70.4373 179.139 72.4C179.139 74.512 178.467 76.304 177.123 77.776C175.737 79.248 174.03 79.984 172.003 79.984C171.086 79.984 170.137 79.7707 169.155 79.344C168.153 78.8747 167.342 78.2667 166.723 77.52C165.486 75.9627 164.867 73.68 164.867 70.672C164.867 67.856 165.87 65.4027 167.875 63.312C168.579 62.544 169.657 61.9147 171.107 61.424C172.195 61.0613 173.038 60.7733 173.635 60.56C174.233 60.3467 174.585 60.208 174.691 60.144C176.014 59.4827 177.049 58.5227 177.795 57.264L180.355 59.056ZM195.299 71.504C195.299 70.0107 194.925 68.7307 194.179 67.664C193.368 66.512 192.312 65.936 191.011 65.936C189.688 65.936 188.632 66.512 187.843 67.664C187.096 68.7307 186.723 70.0107 186.723 71.504C186.723 73.0187 187.107 74.2987 187.875 75.344C188.664 76.496 189.709 77.072 191.011 77.072C192.291 77.072 193.336 76.496 194.147 75.344C194.915 74.2987 195.299 73.0187 195.299 71.504ZM198.467 71.536C198.467 73.8187 197.816 75.7707 196.515 77.392C195.064 79.184 193.229 80.08 191.011 80.08C188.728 80.08 186.883 79.1947 185.475 77.424C184.173 75.8027 183.523 73.84 183.523 71.536C183.523 69.2533 184.163 67.2907 185.443 65.648C186.851 63.856 188.707 62.96 191.011 62.96C193.293 62.96 195.139 63.8667 196.547 65.68C197.827 67.3227 198.467 69.2747 198.467 71.536ZM218.627 79.664H215.395V66.512H209.859V72.752C209.859 74.8213 209.251 76.5067 208.035 77.808C206.712 79.1947 204.941 79.9307 202.723 80.016L201.571 76.944C203.491 76.88 204.845 76.4853 205.635 75.76C206.36 75.0347 206.723 73.872 206.723 72.272V63.376H218.627V79.664ZM239.03 79.664H235.894V69.648L228.502 77.84V79.664H225.366V63.376H228.502V73.328L235.894 65.168V63.376H239.03V79.664ZM260.093 66.416H253.917V79.664H250.557V66.416H244.413V63.376H260.093V66.416Z" fill="black"/>
<g filter="url(#filter0_d_111_5100)">
<path d="M32.3713 15.0344C29.4314 14.8483 26.4102 15.4138 23.6731 16.8185C16.3739 20.564 13.8194 28.9368 18.0336 35.4244C22.2477 41.9122 31.6676 44.1827 38.9667 40.4369C46.2658 36.6914 48.8204 28.3189 44.6062 21.8311C41.9724 17.7763 37.2712 15.3445 32.3713 15.0344ZM32.1801 17.753C35.6156 17.9668 38.888 19.519 41.0696 22.0859L20.0408 32.7907C17.6882 27.8084 19.7947 21.9723 25.2024 19.1973C27.4028 18.0682 29.831 17.6069 32.1801 17.753ZM77.7742 22.4258C75.033 22.4258 72.3105 23.2889 70.223 25.1444L60.5689 33.8102C60.3412 33.9075 60.1442 34.0534 59.9954 34.235L50.7236 42.4759C46.5486 46.1866 46.5486 52.1884 50.7236 55.8994C54.8987 59.6103 61.651 59.6103 65.8261 55.8994L75.289 47.5734C75.3222 47.5464 75.3541 47.518 75.3846 47.4885L75.4802 47.4035C75.5949 47.3041 75.6916 47.1894 75.7669 47.0637L85.3254 38.6528C89.5005 34.9421 89.5005 28.8554 85.3254 25.1444C83.2379 23.2889 80.5154 22.4258 77.7742 22.4258ZM42.5033 24.3798C44.9334 29.3839 42.8818 35.2643 37.4373 38.0581C31.996 40.8506 25.2324 39.4511 21.5702 35.0846L42.5033 24.3798ZM77.7742 25.0595C79.7242 25.0595 81.6199 25.7588 83.127 27.0985C86.1412 29.7777 86.1412 34.0198 83.127 36.6988L74.3332 44.5999L63.532 34.9996L72.3259 27.0985C73.833 25.7588 75.8242 25.0595 77.7742 25.0595ZM61.3336 36.8687L72.1347 46.5539L63.7232 54.0303C60.709 56.7095 55.9364 56.7095 52.9221 54.0303C49.9079 51.351 49.9079 47.109 52.9221 44.43L61.3336 36.8687ZM26.7318 47.6584C23.9906 47.6584 21.2681 48.6065 19.1806 50.462C15.0055 54.1727 15.0055 60.2597 19.1806 63.9704L28.8347 72.4663C28.9828 72.7215 29.2166 72.9293 29.5038 73.061L38.5843 81.217C42.7594 84.9277 49.6073 84.9277 53.7824 81.217C57.9574 77.506 57.9574 71.5045 53.7824 67.7935L44.415 59.5526C44.3211 59.3895 44.191 59.245 44.0327 59.1278L34.283 50.462C32.1955 48.6065 29.473 47.6584 26.7318 47.6584ZM26.7318 50.3771C28.6818 50.3771 30.5774 51.0764 32.0846 52.4161L40.974 60.3172L30.1729 69.9175L21.2834 62.0164C18.2692 59.3371 18.2692 55.095 21.2834 52.4161C22.7906 51.0764 24.7818 50.3771 26.7318 50.3771ZM80.2594 53.0957C77.1138 53.0957 73.9438 54.1215 71.5612 56.2392C66.796 60.4746 66.796 67.4662 71.5612 71.7016C76.3264 75.9373 84.1925 75.9373 88.9577 71.7016C93.7229 67.4662 93.7229 60.4746 88.9577 56.2392C86.5751 54.1215 83.4051 53.0957 80.2594 53.0957ZM80.2594 55.8144C82.0953 55.8144 83.9415 56.3548 85.5166 57.3437L72.8038 68.6431C70.2768 65.4633 70.5471 61.0488 73.7596 58.1932C75.5578 56.5949 77.9255 55.8144 80.2594 55.8144ZM87.7151 59.2127C90.2892 62.3969 89.9901 66.8758 86.7592 69.7476C83.5284 72.6193 78.489 72.8852 74.9067 70.5972L87.7151 59.2127ZM43.0768 62.1863L51.5839 69.6626C54.5982 72.3419 54.5982 76.6686 51.5839 79.3479C48.5697 82.0269 43.797 82.0269 40.7828 79.3479L32.2757 71.7866L43.0768 62.1863Z" fill="#48AA39"/>
</g>
</g>
<defs>
<filter id="filter0_d_111_5100" x="12" y="15" width="84.5316" height="85" filterUnits="userSpaceOnUse" color-interpolation-filters="sRGB">
<feFlood flood-opacity="0" result="BackgroundImageFix"/>
<feColorMatrix in="SourceAlpha" type="matrix" values="0 0 0 0 0 0 0 0 0 0 0 0 0 0 0 0 0 0 127 0" result="hardAlpha"/>
<feOffset dy="12"/>
<feGaussianBlur stdDeviation="2"/>
<feComposite in2="hardAlpha" operator="out"/>
<feColorMatrix type="matrix" values="0 0 0 0 0 0 0 0 0 0 0 0 0 0 0 0 0 0 0.25 0"/>
<feBlend mode="normal" in2="BackgroundImageFix" result="effect1_dropShadow_111_5100"/>
<feBlend mode="normal" in="SourceGraphic" in2="effect1_dropShadow_111_5100" result="shape"/>
</filter>
<clipPath id="clip0_111_5100">
<rect width="295" height="99" fill="white"/>
</clipPath>
</defs>
</svg>
